HIERARCHY
ROOT Hips
{
  OFFSET -348.227 92.6761 320.338
  CHANNELS 6 Xposition Yposition Zposition Zrotation Xrotation Yrotation
  JOINT ToSpine
  {
    OFFSET -0.0105055 1.38907 -7.13956
    CHANNELS 3 Zrotation Xrotation Yrotation
    JOINT Spine
    {
      OFFSET 0.0105055 10 1
      CHANNELS 3 Zrotation Xrotation Yrotation
      JOINT Spine1
      {
        OFFSET 0 12 1.60637
        CHANNELS 3 Zrotation Xrotation Yrotation
        JOINT Neck
        {
          OFFSET 0 27 2.26658
          CHANNELS 3 Zrotation Xrotation Yrotation
          JOINT Head
          {
            OFFSET 0 9 2.12705
            CHANNELS 3 Zrotation Xrotation Yrotation
            End Site
            {
              OFFSET 0 11 2
            }
          }
        }
        JOINT LeftShoulder
        {
          OFFSET 8 19.6109 2.86452
          CHANNELS 3 Zrotation Xrotation Yrotation
          JOINT LeftArm
          {
            OFFSET 12 1 0.681055
            CHANNELS 3 Zrotation Xrotation Yrotation
            JOINT LeftForeArm
            {
              OFFSET 19 0 -1.52608
              CHANNELS 3 Zrotation Xrotation Yrotation
              JOINT LeftHand
              {
                OFFSET 23 0 0
                CHANNELS 3 Zrotation Xrotation Yrotation
                End Site
                {
                  OFFSET 10 0 0
                }
              }
            }
          }
        }
        JOINT RightShoulder
        {
          OFFSET -8 19.6109 2.86452
          CHANNELS 3 Zrotation Xrotation Yrotation
          JOINT RightArm
          {
            OFFSET -12 1 0.681055
            CHANNELS 3 Zrotation Xrotation Yrotation
            JOINT RightForeArm
            {
              OFFSET -19 0 -1.52608
              CHANNELS 3 Zrotation Xrotation Yrotation
              JOINT RightHand
              {
                OFFSET -23 0 0
                CHANNELS 3 Zrotation Xrotation Yrotation
                End Site
                {
                  OFFSET -10 0 0
                }
              }
            }
          }
        }
      }
    }
  }
  JOINT LeftUpLeg
  {
    OFFSET 9 -7.17245 0
    CHANNELS 3 Zrotation Xrotation Yrotation
    JOINT LeftLeg
    {
      OFFSET 0 -44.1113 0
      CHANNELS 3 Zrotation Xrotation Yrotation
      JOINT LeftFoot
      {
        OFFSET 0 -36.1829 0
        CHANNELS 3 Zrotation Xrotation Yrotation
        JOINT LeftToeBase
        {
          OFFSET 0 -4.84184 13
          CHANNELS 3 Zrotation Xrotation Yrotation
          End Site
          {
            OFFSET 0 1 6
          }
        }
      }
    }
  }
  JOINT RightUpLeg
  {
    OFFSET -9 -7.17245 0
    CHANNELS 3 Zrotation Xrotation Yrotation
    JOINT RightLeg
    {
      OFFSET 0 -44.0551 0
      CHANNELS 3 Zrotation Xrotation Yrotation
      JOINT RightFoot
      {
        OFFSET 0 -36.1469 0
        CHANNELS 3 Zrotation Xrotation Yrotation
        JOINT RightToeBase
        {
          OFFSET 0 -4.92256 13
          CHANNELS 3 Zrotation Xrotation Yrotation
          End Site
          {
            OFFSET 0 1 6
          }
        }
      }
    }
  }
}
MOTION
Frames:	12
Frame Time:	0.0333333
-348.386 92.6632 320.531 6.64017 4.01024 128.238 0 0 0 8.94375 31.5349 0.210692 -15.2965 -31.8758 0.453911 9.9425 19.3854 -2.39106 -4.03215 -4.16214 2.91346 -35.983 3.60968 -5.06306 -37.9706 21.7343 13.5053 -4.42649 -12.02 -11.0838 -8.49649 0.209155 -2.76172 27.8481 5.97253 13.9699 62.9121 20.4488 -14.5612 6.13048 -12.1318 16.6407 -0.514421 -0.0188757 3.98653 0.612935 -5.9192 11.4698 -6.32737 24.8855 -3.45812 7.02301 -11.7716 0.725125 0.978131 -2.61104 -3.72217 -0.801441 9.69974 -7.58373 -0.0302869 48.7696 4.63115 -22.7184 10.2306 2.0663 5.96314 -23.435 -5.20428 
-347.127 92.8961 318.945 6.00479 4.29582 127.451 0 0 0 7.34073 27.6488 0.805641 -13.458 -24.7083 1.50631 8.36128 13.3377 -0.848152 -3.52587 -2.06987 3.31984 -35.1504 3.25609 -4.38154 -35.5746 21.53 3.98804 -4.37777 -12.91 -10.8903 -10.7612 0.27565 -2.47481 26.4717 5.53067 13.3362 60.5589 18.7482 -11.1816 4.62752 -8.57225 15.8912 -1.47489 -0.0193795 1.702 -1.22301 -3.68661 9.65697 -5.89521 21.9583 -1.54259 7.84756 -11.505 0.791426 0.967885 -3.54491 -3.51931 -2.37008 4.35887 -4.80825 0.0789179 53.5646 7.65259 -22.6426 4.98284 1.02103 5.61818 -22.4658 -6.32035 
-345.482 92.9747 317.277 4.9319 3.87806 127.806 0 0 0 5.49841 21.7481 0.898581 -11.0726 -16.9779 1.75462 6.97778 10.8872 0.373133 -2.58755 -3.07874 3.62411 -35.2505 3.32802 -4.53564 -33.6716 24.2108 -4.53643 -6.92311 -22.7414 -9.31061 -4.21828 0.305035 -8.5893 25.8782 5.75202 14.3159 58.1282 16.8049 -8.63997 3.89094 -7.20468 15.3551 -1.17732 -0.0191121 1.92605 -2.56842 -2.52658 8.47176 -4.96654 20.0566 -0.306373 7.99036 -12.4328 0.871918 1.10214 -4.15166 -4.04947 -2.48097 -2.33601 -2.54316 -0.0327134 56.0495 7.50154 -25.1787 1.14234 0.228009 5.9392 -24.7523 -8.24304 
-343.752 93.1704 315.729 3.54043 2.56488 128.942 0 0 0 4.21079 14.5964 0.551359 -9.46684 -8.25066 1.62798 8.07776 6.43472 0.721136 -3.07132 -2.03235 4.19639 -32.6579 3.29373 -4.99502 -33.0073 28.5966 -13.8762 -8.7278 -31.3155 -4.94481 4.478 -0.8522 -23.0065 25.9287 5.80317 14.4456 55.8764 15.486 -5.65897 3.49852 -7.29216 15.8317 -0.488272 -0.00934405 1.83145 -3.14073 -2.29557 7.39326 -3.78129 18.3978 -0.422792 7.2857 -13.3916 0.855509 1.44973 -1.61043 -5.99106 -1.56326 -9.30057 -0.158802 -0.0436091 55.8394 2.76974 -22.2563 -4.4858 -0.846609 5.0719 -19.7033 -5.76004 
-341.77 93.2853 314.128 3.40245 1.54824 130.332 0 0 0 2.9934 9.45924 0.0488172 -7.69182 -0.984243 1.13737 9.70967 2.47707 1.0323 -3.66125 -1.29004 4.88665 -29.7893 3.21032 -5.43765 -32.8724 18.4577 -22.3372 -4.80623 -15.5609 -6.83775 -5.36887 -0.0944359 -7.35265 26.0364 5.71573 14.1228 54.0605 13.7655 -2.99153 2.94759 -6.06702 15.1041 0.530714 0.0174696 3.15168 -2.5834 -0.776079 7.47423 -3.09178 17.2854 -2.37831 7.68322 -14.2578 0.963189 1.08808 -2.86656 -4.23315 0.152399 -13.4372 1.33786 0.0503312 50.8195 -2.05708 -25.4913 -4.38911 -1.00852 5.0577 -19.871 -6.26079 
-339.55 93.5149 312.032 4.5875 1.23951 131.604 0 0 0 2.06517 8.0246 -0.459975 -4.94153 1.9859 0.262191 10.4306 2.75704 0.974467 -4.34034 -2.44334 5.19969 -29.7879 3.43919 -6.06626 -31.947 15.5568 -27.1951 -3.45754 -10.7079 -8.43975 -9.20024 0.285666 -2.78249 25.8086 5.75457 14.3601 53.5819 12.8604 -3.23447 2.97043 -6.84674 16.0229 1.36983 0.0217174 1.83732 -1.85939 3.69483 7.70311 -2.38004 13.7104 -4.33494 7.58088 -14.1741 0.942474 0.983446 -2.73081 -3.72392 1.75156 -14.8836 3.41756 -0.0216036 43.6169 -4.29241 -18.3645 -8.0931 -1.25438 3.00033 -10.2735 -8.03683 
-337.128 93.1097 310.078 4.69576 0.79086 132.803 0 0 0 0.370419 8.04076 -0.721715 -2.75629 1.78691 -0.404405 11.9529 2.59215 0.342297 -5.09848 -2.62948 5.19367 -29.2904 3.59878 -6.65069 -31.1084 16.2089 -30.8243 -3.50439 -10.1803 -10.1004 -8.43968 0.223009 -3.01625 26.3632 5.64701 13.75 52.9913 11.7376 -4.36109 1.85161 -3.84844 16.9574 1.01729 0.0482254 5.95479 -1.08521 5.74973 8.53224 -2.37837 13.6063 -6.42372 8.29067 -16.0639 1.17319 0.955296 -1.92156 -3.72403 2.81761 -16.6161 3.96554 0.0583767 34.3137 -6.26218 -19.5481 -5.01719 -0.83232 3.69067 -13.5211 -9.80678 
-334.738 92.7443 308.047 4.60695 0.127285 133.936 0 0 0 -0.830826 6.73183 -1.01465 -0.976892 3.19041 -0.969837 13.0928 1.68884 0.0983 -5.17346 -2.53869 5.23538 -28.0263 3.67499 -7.23966 -30.8609 16.072 -34.7622 -3.06273 -8.48783 -11.4511 -8.57455 0.23712 -3.15896 26.4003 5.48735 13.2474 52.9621 10.537 -4.76103 1.27035 -2.50059 17.3106 1.02367 0.0768359 8.51282 -0.255208 7.60682 9.18925 -2.52149 13.168 -8.20775 9.95593 -17.3627 1.52122 0.963411 -2.61823 -3.64669 3.50626 -17.4795 2.98517 -0.202067 22.8005 -6.33821 -18.4171 -1.69302 -0.316855 3.77309 -14.0789 -7.65639 
-332.044 91.7953 305.715 3.09241 -0.672772 134.645 0 0 0 -2.70701 4.06089 -1.34548 0.315232 3.92101 -1.3534 13.8922 1.59483 -0.0827614 -5.20077 -2.82982 5.29259 -27.3174 3.64962 -7.38205 -30.5912 15.9467 -38.2037 -2.38242 -5.5155 -11.7347 -8.42683 0.271448 -3.68656 26.3913 5.45704 13.1614 53.3232 9.6121 -5.85481 1.14288 -2.42539 17.923 1.22869 0.105832 9.9735 -0.254065 7.66071 9.71737 -2.92736 14.9263 -9.75913 11.9029 -20.1738 2.13081 0.712365 -3.93513 -2.21997 3.27878 -19.3178 1.3926 0.852384 11.4401 -4.23466 -24.1298 4.7387 1.07291 5.57078 -22.7334 -7.90897 
-329.298 90.7686 303.246 2.10777 -1.33296 135.195 0 0 0 -3.90505 2.09435 -1.64213 1.27318 4.27327 -1.58515 14.4666 1.71391 -0.0515106 -5.0155 -3.00001 5.47582 -27.3074 3.66897 -7.44274 -29.5907 16.2414 -41.2387 -1.72009 -2.26218 -12.006 -7.94344 0.259314 -3.73408 27.0931 5.58159 13.1939 52.8731 8.37226 -7.08427 1.42508 -3.24265 17.3625 2.31985 0.24608 11.9595 0.0464424 8.71612 10.3871 -3.15007 15.9526 -10.8954 12.0924 -23.0783 2.47452 0.977454 -3.99792 -3.48818 3.43648 -22.5812 1.0203 1.59457 6.58936 -4.04747 -21.4217 3.1906 0.624972 5.52083 -21.5229 -5.16892 
-326.577 89.7983 300.755 2.22965 -1.19147 135.509 0 0 0 -4.62359 2.15553 -1.95319 2.43551 4.18125 -2.04433 13.9741 1.95391 0.193246 -4.39859 -3.30267 5.46102 -28.0527 3.68129 -7.25114 -28.0929 16.4551 -42.5649 -1.22455 -1.08163 -12.9207 -8.28988 0.297292 -4.09467 27.494 5.82288 13.7111 52.5932 7.9646 -7.93981 1.64846 -3.64152 16.5364 2.0638 0.228715 12.6839 0.45117 12.0789 11.1582 -3.50033 15.2311 -12.067 12.2773 -25.4465 2.78247 1.07831 -3.70859 -4.02129 4.28557 -24.2812 1.6933 1.17849 4.38641 -3.89792 -17.3265 1.05309 0.159796 4.92611 -19.0568 -4.96915 
-323.838 88.7236 298.134 2.32409 -0.921083 136.375 0 0 0 -5.16801 4.10479 -2.52906 3.60549 0.500154 -2.79786 13.1253 6.91057 0.016403 -3.3925 -6.54876 5.31202 -29.9315 3.99689 -7.56252 -26.6227 17.5201 -40.7211 -1.01034 -0.44737 -13.7146 -8.86602 0.306481 -3.95448 28.1593 6.50213 15.3197 52.5817 6.43982 -11.0892 1.72787 -3.85492 15.8489 1.80768 0.20889 12.8679 0.664764 15.5969 11.6267 -3.59457 14.1348 -13.4302 12.9877 -27.207 3.15429 1.00114 -3.18801 -3.73468 4.60783 -25.1797 1.71821 1.54989 4.68492 -5.29196 -18.2906 0.450418 0.0680081 5.1442 -20.0842 -5.45956 
